# ProBuilder 5.0.7
# https://unity3d.com/unity/features/worldbuilding/probuilder
# 20/11/2023 18:32:35

mtllib ./Hole_5_(obj).mtl
o Hole 5 (obj)

g Hole 5
v 3.9996 1.46652 4.9995
v 4.9995 1.46652 4.9995
v 3.9996 0.63327 4.9995
v 4.9995 0 4.9995
v -4.9995 1.46652 4.9995
v -3.9996 0.63327 4.9995
v -4.9995 0 4.9995
v -3.9996 1.46652 4.9995
v 4.9995 0 -4.9995
v -4.9995 0 -4.9995
v 4.9995 1.46652 -4.9995
v -3.9996 1.46652 -4.9995
v -4.9995 1.46652 -4.9995
v -3.9996 0.63327 -4.9995
v 0 0.63327 -4.9995
v 3.089781E-12 1.46652 -4.9995
v 3.082562E-12 1.46652 -4.16625
v 3.9996 1.46652 -4.16625
v 3.9996 0.63327 -4.16625
v 3.082562E-12 0.63327 -4.16625
v -4.999552 0 -5.000553
v 4.999447 0 -5.000448
v -4.999447 0 -14.99955
v 4.999552 0 -14.99945
v -4.999552 1.46652 -5.000553
v -4.999447 1.46652 -14.99955
v 3.999547 1.46652 -5.000458
v 3.999642 1.46652 -13.99956
v 4.999447 1.46652 -5.000448
v 4.999552 1.46652 -14.99945
v -3.999558 1.46652 -13.99964
v -3.999653 1.46652 -5.000542
v 3.999547 0.63327 -5.000458
v 3.999642 0.63327 -13.99956
v -3.999558 0.63327 -13.99964
v 3.9996 1.46652 14.9995
v 4.9995 1.46652 14.9995
v 3.9996 0.63327 14.9995
v 4.9995 0 14.9995
v -4.9995 0 14.9995
v -3.9996 0.63327 14.9995
v -4.9995 1.46652 14.9995
v -3.9996 1.46652 14.9995
v 4.9995 0 5.0005
v -4.9995 0 5.0005
v 4.9995 1.46652 5.0005
v 3.086171E-12 1.46652 5.0005
v 3.082562E-12 1.46652 5.83375
v -4.9995 1.46652 5.0005
v -3.9996 1.46652 5.83375
v 0 0.63327 4.9995
v 3.9996 1.46652 5.0005
v -3.9996 0.63327 5.83375
v 3.082562E-12 0.63327 5.83375
v 4.9995 0 15.0005
v -4.9995 0 15.0005
v 4.9995 0 24.9995
v -4.9995 0 24.9995
v 4.9995 1.46652 15.0005
v 4.9995 1.46652 24.9995
v -4.9995 1.46652 15.0005
v -4.9995 1.46652 24.9995
v 3.9996 1.46652 15.0005
v 3.9996 1.46652 24.9995
v 3.9996 0.63327 24.9995
v -3.9996 1.46652 15.0005
v -3.9996 1.46652 24.9995
v -3.9996 0.63327 24.9995
v 4.9995 0 25.0005
v -4.9995 0 25.0005
v 4.9995 0 30
v 4.829145 7.519158E-17 31.29396
v 4.329694 3.007663E-16 32.49975
v 3.53518 6.015327E-16 33.53518
v 2.49975 9.774906E-16 34.32969
v 1.293966 1.503832E-15 34.82915
v 3.724913E-08 1.954981E-15 34.9995
v -1.293966 2.481322E-15 34.82915
v -2.49975 2.932472E-15 34.32969
v -3.53518 3.383621E-15 33.53518
v -4.329694 3.684387E-15 32.49975
v -4.829145 3.834771E-15 31.29396
v -4.9995 3.834771E-15 30
v 4.9995 1.46652 25.0005
v 4.9995 1.46652 30
v 4.829145 1.46652 31.29396
v 4.329694 1.46652 32.49975
v 3.53518 1.46652 33.53518
v 2.49975 1.46652 34.32969
v 1.293966 1.46652 34.82915
v 3.724913E-08 1.46652 34.9995
v -1.293966 1.46652 34.82915
v -2.49975 1.46652 34.32969
v -3.53518 1.46652 33.53518
v -4.329694 1.46652 32.49975
v -4.829145 1.46652 31.29396
v -4.9995 1.46652 30
v -4.9995 1.46652 25.0005
v -3.9996 1.46652 25.0005
v 3.9996 1.46652 25.0005
v -3.9996 1.46652 30
v -3.863317 1.46652 31.03517
v -3.463755 1.46652 31.9998
v -2.828144 1.46652 32.82814
v -1.9998 1.46652 33.46376
v -1.035173 1.46652 33.86332
v 3.003151E-12 1.46652 33.9996
v 1.035173 1.46652 33.86332
v 1.9998 1.46652 33.46376
v 2.828144 1.46652 32.82814
v 3.463755 1.46652 31.9998
v 3.863317 1.46652 31.03517
v 3.9996 1.46652 30
v 3.9996 0.63327 30
v 3.863317 0.63327 31.03517
v 3.463755 0.63327 31.9998
v 2.828144 0.63327 32.82814
v 1.9998 0.63327 33.46376
v 1.035173 0.63327 33.86332
v 3.003151E-12 0.63327 33.9996
v -1.035173 0.63327 33.86332
v -1.9998 0.63327 33.46376
v -2.828144 0.63327 32.82814
v -3.463755 0.63327 31.9998
v -3.863317 0.63327 31.03517
v -3.9996 0.63327 30
v 0.6666 0.316635 30
v 0.4713573 0.316635 30.47136
v 0.4713573 0.316635 29.52864
v 3.060904E-12 0.316635 29.3334
v 3.060904E-12 0.316635 30.6666
v -0.4713573 0.316635 29.52864
v -0.4713573 0.316635 30.47136
v -0.6666 0.316635 30
v 0.4713574 0.63327 29.52864
v 0 0.63327 29.3334
v -0.4713571 0.63327 29.52864
v 0.6666002 0.63327 30
v 0.4713574 0.63327 30.47136
v 0 0.63327 30.6666
v -0.4713571 0.63327 30.47136
v -0.6665998 0.63327 30

vt 0.21875 0.225
vt 0.21875 0.1113636
vt 0.21875 0.025
vt 0.03125 0.125
vt 0.2251381 0.1341913
vt 0.2251381 0.2363134
vt 0.2134193 0.1363134
vt 0.2251381 0.220555
vt 0.2172343 0.1720724
vt 0.2018534 0.2007789
vt 0.2234207 0.1919225
vt 0.2459592 0.1874188
vt 0.2306128 0.2161437
vt 0.04727072 0.09396052
vt 0.01309103 0.1755084
vt 0.01797384 0.09609121
vt 0.34375 0.06818182
vt 0.21875 0.06818182
vt 0.05064989 0.09192672
vt 0.05518082 0.08905713
vt 0.009871516 0.08905713
vt 0.01440268 0.09192672
vt 0.0325264 0.09192672
vt 0.05064918 0.1514538
vt 0.05064899 0.1106707
vt 0.01440155 0.1106711
vt 0.01440198 0.1514495
vt 0.03252546 0.1514538
vt 0.05064918 0.176978
vt 0.05518011 0.1741084
vt 0.00987081 0.1741084
vt 0.01440174 0.176978
vt 0.03252546 0.176978
vt 0.05064918 0.1967631
vt 0.03252546 0.1552296
vt 0.01440174 0.1552296
vt 0.01440174 0.1967631
vt 0.03252546 0.1967631

vn 0 0 1
vn 0 -1 0
vn 1 0 0
vn 0 1 0
vn -1 0 0
vn 0 0 -1
vn -0.000531699 0.0006254815 0.9999996
vn -0.001052906 0 0.9999995
vn -1.049146E-05 0.001250963 0.9999992
vn 0.4548578 -0.8905627 0.00162743
vn -0.4548577 -0.8905625 0.001681678
vn 0 0.001200032 -0.9999993
vn -0.0001000028 0.0006000163 -0.9999998
vn -5.000141E-05 -0.0004894867 -0.9999999
vn -0.0001000028 -0.0007894947 -0.9999997
vn 0.0005000138 -0.0007894948 -0.9999996
vn 0.0005000138 0.0006000163 -0.9999997
vn 0.9978589 0 0.0654034
vn 0.9659258 0 0.2588192
vn 0.8660256 0 0.4999998
vn 0.7071069 0 0.7071067
vn 0.5000008 0 0.866025
vn 0.2588196 0 0.9659257
vn -0.2588196 0 0.9659257
vn -0.5000008 0 0.866025
vn -0.7071069 0 0.7071067
vn -0.8660256 0 0.4999998
vn -0.9659258 0 0.2588192
vn -0.9978589 0 0.0654034
vn -0.9978589 0 -0.06540325
vn -0.9659259 0 -0.2588186
vn -0.8660253 0 -0.5000001
vn -0.7071068 0 -0.7071068
vn -0.4999996 0 -0.8660257
vn -0.2588182 0 -0.965926
vn 0.2588182 0 -0.965926
vn 0.4999996 0 -0.8660257
vn 0.7071068 0 -0.7071068
vn 0.8660253 0 -0.5000001
vn 0.9659259 0 -0.2588186
vn 0.9978589 0 -0.06540325
vn 0.0002396378 0.000394941 0.9999999
vn 0.0001145732 -0.0005924 0.9999993
vn -5.245727E-06 -0.001621155 0.9999987

usemtl colormap
f 14/4/4 20/4/4 15/4/4
f 6/4/4 20/4/4 14/4/4
f 3/29/1 51/33/1 4/30/1
f 4/30/1 51/33/1 7/31/1
f 51/33/1 6/32/1 7/31/1
f 3/37/4 19/36/4 20/35/4
f 6/34/4 51/38/4 20/35/4
f 3/37/4 20/35/4 51/38/4
f 4/3/1 2/1/1 1/1/1
f 1/1/1 3/2/1 4/3/1
f 5/1/1 7/3/1 6/2/1
f 6/2/1 8/1/1 5/1/1
f 7/3/2 10/3/2 9/3/2
f 9/3/2 4/3/2 7/3/2
f 4/3/3 9/3/3 11/1/3
f 11/1/3 2/1/3 4/3/3
f 5/1/4 8/1/4 12/1/4
f 12/1/4 13/1/4 5/1/4
f 5/1/5 13/1/5 10/3/5
f 10/3/5 7/3/5 5/1/5
f 10/3/6 13/1/6 12/1/6
f 12/1/6 14/4/6 10/3/6
f 9/3/6 10/3/6 14/4/6
f 14/4/6 15/4/6 9/3/6
f 16/6/6 11/6/6 9/5/6
f 9/5/6 15/7/6 16/6/6
f 11/1/4 16/1/4 17/1/4
f 17/1/4 18/1/4 11/1/4
f 2/1/4 11/1/4 18/1/4
f 18/1/4 1/1/4 2/1/4
f 6/8/3 14/7/3 12/6/3
f 12/6/3 8/6/3 6/8/3
f 1/1/5 18/1/5 19/2/5
f 19/2/5 3/2/5 1/1/5
f 17/1/5 16/1/5 15/4/5
f 15/4/5 20/2/5 17/1/5
f 18/1/1 17/1/1 20/2/1
f 20/2/1 19/2/1 18/1/1

usemtl colormap_1
f 33/19/42 15/23/43 22/20/43
f 22/20/43 15/23/43 21/21/44
f 15/23/43 14/22/44 21/21/44
f 15/28/4 35/25/4 14/24/4
f 15/28/4 34/26/4 35/25/4
f 33/27/4 34/26/4 15/28/4
f 24/3/2 22/3/2 21/3/2
f 21/3/2 23/3/2 24/3/2
f 23/3/5 21/3/5 25/1/5
f 25/1/5 26/1/5 23/3/5
f 30/1/4 28/1/4 27/1/4
f 27/1/4 29/1/4 30/1/4
f 26/1/4 31/1/4 28/1/4
f 28/1/4 30/1/4 26/1/4
f 25/1/4 32/1/4 31/1/4
f 31/1/4 26/1/4 25/1/4
f 30/1/3 29/1/3 22/3/3
f 22/3/3 24/3/3 30/1/3
f 22/3/1 29/1/1 27/1/1
f 27/1/1 33/2/1 22/3/1
f 25/1/7 21/3/8 14/4/7
f 14/4/7 32/1/9 25/1/7
f 34/2/5 33/2/5 27/1/5
f 27/1/5 28/1/5 34/2/5
f 30/1/6 24/3/6 23/3/6
f 23/3/6 26/1/6 30/1/6
f 31/6/3 32/6/3 14/7/3
f 14/7/3 35/8/3 31/6/3
f 31/1/1 35/2/1 34/2/1
f 34/2/1 28/1/1 31/1/1

usemtl colormap_2
f 38/2/10 39/3/1 37/1/1 36/1/1
f 41/2/11 40/3/1 39/3/1 38/2/10
f 43/1/1 42/1/1 40/3/1 41/2/11
f 39/3/2 40/3/2 45/3/2 44/3/2
f 37/1/3 39/3/3 44/3/3 46/1/3
f 49/1/4 50/1/4 48/1/4 47/1/4
f 42/1/4 43/1/4 50/1/4 49/1/4
f 40/3/5 42/1/5 49/1/5 45/3/5
f 51/10/14 45/3/15 49/1/13 47/9/12
f 3/2/14 44/3/16 45/3/15 51/11/14
f 52/1/12 46/1/17 44/3/16 3/2/14
f 52/1/4 36/1/4 37/1/4 46/1/4
f 38/2/5 36/1/5 52/1/5 3/2/5
f 43/1/3 41/2/3 53/2/3 50/1/3
f 48/12/3 54/13/3 51/10/3 47/9/3
f 48/1/1 50/1/1 53/2/1 54/2/1
f 51/15/4 54/16/4 38/14/4 3/14/4
f 53/16/4 41/14/4 38/14/4 54/16/4

usemtl colormap_3
f 57/3/2 58/3/2 56/3/2 55/3/2
f 60/1/3 57/3/3 55/3/3 59/1/3
f 58/3/5 62/1/5 61/1/5 56/3/5
f 63/1/4 64/1/4 60/1/4 59/1/4
f 65/2/5 64/1/5 63/1/5 38/2/5
f 41/2/11 56/3/15 61/1/13 66/1/12
f 38/2/10 55/3/15 56/3/15 41/2/11
f 63/1/12 59/1/13 55/3/15 38/2/10
f 67/1/3 68/2/3 41/2/3 66/1/3
f 65/2/1 57/3/1 60/1/1 64/1/1
f 68/2/1 58/3/1 57/3/1 65/2/1
f 67/1/1 62/1/1 58/3/1 68/2/1
f 61/1/4 62/1/4 67/1/4 66/1/4
f 41/14/4 68/14/4 65/14/4 38/14/4

usemtl colormap_4
f 70/3/2 72/3/2 73/3/2
f 70/3/2 75/3/2 76/3/2
f 70/3/2 76/3/2 77/3/2
f 70/3/2 77/3/2 78/3/2
f 70/3/2 78/3/2 79/3/2
f 70/3/2 79/3/2 80/3/2
f 70/3/2 80/3/2 81/3/2
f 98/1/4 101/1/4 99/1/4
f 95/1/4 102/1/4 101/1/4
f 96/1/4 98/1/4 97/1/4
f 94/1/4 104/1/4 103/1/4
f 89/1/4 110/1/4 109/1/4
f 88/1/4 112/1/4 111/1/4
f 129/17/4 128/17/4 127/17/4
f 128/17/4 129/17/4 130/17/4
f 120/4/4 139/4/4 140/4/4
f 121/4/4 141/4/4 142/4/4
f 137/16/4 68/14/4 142/16/4
f 122/16/4 68/14/4 123/16/4
f 123/16/4 68/14/4 124/16/4
f 87/1/4 113/1/4 88/1/4
f 72/3/2 70/3/2 69/3/2
f 69/3/2 71/3/2 72/3/2
f 70/3/2 73/3/2 74/3/2
f 74/3/2 75/3/2 70/3/2
f 70/3/2 81/3/2 82/3/2
f 82/3/2 83/3/2 70/3/2
f 71/3/18 69/3/3 84/1/3
f 84/1/3 85/1/18 71/3/18
f 72/3/19 71/3/18 85/1/18
f 85/1/18 86/1/19 72/3/19
f 73/3/20 72/3/19 86/1/19
f 86/1/19 87/1/20 73/3/20
f 74/3/21 73/3/20 87/1/20
f 87/1/20 88/1/21 74/3/21
f 89/1/22 75/3/22 74/3/21
f 74/3/21 88/1/21 89/1/22
f 90/1/23 76/3/23 75/3/22
f 75/3/22 89/1/22 90/1/23
f 91/1/1 77/3/1 76/3/23
f 76/3/23 90/1/23 91/1/1
f 92/1/24 78/3/24 77/3/1
f 77/3/1 91/1/1 92/1/24
f 93/1/25 79/3/25 78/3/24
f 78/3/24 92/1/24 93/1/25
f 94/1/26 80/3/26 79/3/25
f 79/3/25 93/1/25 94/1/26
f 81/3/27 80/3/26 94/1/26
f 94/1/26 95/1/27 81/3/27
f 82/3/28 81/3/27 95/1/27
f 95/1/27 96/1/28 82/3/28
f 83/3/29 82/3/28 96/1/28
f 96/1/28 97/1/29 83/3/29
f 70/3/5 83/3/29 97/1/29
f 97/1/29 98/1/5 70/3/5
f 70/3/15 98/1/13 99/1/12
f 99/1/12 68/2/14 70/3/15
f 69/3/15 70/3/15 68/2/14
f 68/2/14 65/2/14 69/3/15
f 100/1/12 84/1/13 69/3/15
f 69/3/15 65/2/14 100/1/12
f 95/1/4 101/1/4 98/1/4
f 98/1/4 96/1/4 95/1/4
f 103/1/4 102/1/4 95/1/4
f 95/1/4 94/1/4 103/1/4
f 105/1/4 104/1/4 94/1/4
f 94/1/4 93/1/4 105/1/4
f 106/1/4 105/1/4 93/1/4
f 93/1/4 92/1/4 106/1/4
f 91/1/4 107/1/4 106/1/4
f 106/1/4 92/1/4 91/1/4
f 90/1/4 108/1/4 107/1/4
f 107/1/4 91/1/4 90/1/4
f 89/1/4 109/1/4 108/1/4
f 108/1/4 90/1/4 89/1/4
f 88/1/4 111/1/4 110/1/4
f 110/1/4 89/1/4 88/1/4
f 86/1/4 100/1/4 113/1/4
f 113/1/4 87/1/4 86/1/4
f 84/1/4 100/1/4 86/1/4
f 86/1/4 85/1/4 84/1/4
f 113/1/30 100/1/5 65/2/5
f 65/2/5 114/2/30 113/1/30
f 112/1/31 113/1/30 114/2/30
f 114/2/30 115/2/31 112/1/31
f 111/1/32 112/1/31 115/2/31
f 115/2/31 116/2/32 111/1/32
f 110/1/33 111/1/32 116/2/32
f 116/2/32 117/2/33 110/1/33
f 118/2/34 109/1/34 110/1/33
f 110/1/33 117/2/33 118/2/34
f 119/2/35 108/1/35 109/1/34
f 109/1/34 118/2/34 119/2/35
f 120/2/6 107/1/6 108/1/35
f 108/1/35 119/2/35 120/2/6
f 121/2/36 106/1/36 107/1/6
f 107/1/6 120/2/6 121/2/36
f 122/2/37 105/1/37 106/1/36
f 106/1/36 121/2/36 122/2/37
f 123/2/38 104/1/38 105/1/37
f 105/1/37 122/2/37 123/2/38
f 103/1/39 104/1/38 123/2/38
f 123/2/38 124/2/39 103/1/39
f 102/1/40 103/1/39 124/2/39
f 124/2/39 125/2/40 102/1/40
f 101/1/41 102/1/40 125/2/40
f 125/2/40 126/2/41 101/1/41
f 99/1/3 101/1/41 126/2/41
f 126/2/41 68/2/3 99/1/3
f 131/17/4 128/17/4 130/17/4
f 130/17/4 132/17/4 131/17/4
f 133/17/4 131/17/4 132/17/4
f 132/17/4 134/17/4 133/17/4
f 115/16/4 114/16/4 65/14/4
f 65/14/4 68/14/4 115/16/4
f 116/16/4 115/16/4 68/14/4
f 68/14/4 135/16/4 116/16/4
f 136/16/4 135/16/4 68/14/4
f 68/14/4 137/16/4 136/16/4
f 117/4/4 116/4/4 135/4/4
f 135/4/4 138/4/4 117/4/4
f 118/4/4 117/4/4 138/4/4
f 138/4/4 119/4/4 118/4/4
f 139/4/4 120/4/4 119/4/4
f 119/4/4 138/4/4 139/4/4
f 120/4/4 140/4/4 141/4/4
f 141/4/4 121/4/4 120/4/4
f 121/16/4 142/16/4 68/14/4
f 68/14/4 122/16/4 121/16/4
f 125/16/4 124/16/4 68/14/4
f 68/14/4 126/16/4 125/16/4
f 140/2/6 131/18/6 133/18/38
f 133/18/38 141/2/38 140/2/6
f 142/2/3 141/2/38 133/18/38
f 133/18/38 134/18/3 142/2/3
f 139/2/33 128/18/33 131/18/6
f 131/18/6 140/2/6 139/2/33
f 127/18/5 128/18/33 139/2/33
f 139/2/33 138/2/5 127/18/5
f 129/18/26 127/18/5 138/2/5
f 138/2/5 135/2/26 129/18/26
f 137/2/21 142/2/3 134/18/3
f 134/18/3 132/18/21 137/2/21
f 130/18/1 129/18/26 135/2/26
f 135/2/26 136/2/1 130/18/1
f 130/18/1 136/2/1 137/2/21
f 137/2/21 132/18/21 130/18/1

