# ProBuilder 5.0.7
# https://unity3d.com/unity/features/worldbuilding/probuilder
# 20/11/2023 13:21:43

mtllib ./Hole_4_(obj).mtl
o Hole 4 (obj)

g Hole 4
v 3.9996 1.46652 4.9995
v 4.9995 1.46652 4.9995
v 3.9996 0.63327 4.9995
v 4.9995 0 4.9995
v -4.9995 0 4.9995
v -3.9996 0.63327 4.9995
v -4.9995 1.46652 4.9995
v -3.9996 1.46652 4.9995
v -0.49995 0.63327 4.9995
v 0.49995 0.63327 4.9995
v 0.49995 1.46652 4.9995
v -0.49995 1.46652 4.9995
v 4.9995 0 -4.9995
v -4.9995 0 -4.9995
v 4.9995 1.46652 -4.9995
v 0.49995 1.46652 -4.9995
v -0.49995 1.46652 -4.9995
v 0.49995 0.63327 -4.9995
v -0.49995 0.63327 -4.9995
v 3.9996 0.63327 -4.9995
v -3.9996 0.63327 -4.9995
v 3.9996 1.46652 -4.9995
v -4.9995 1.46652 -4.9995
v -3.9996 1.46652 -4.9995
v -4.999552 0 -5.000553
v 4.999447 0 -5.000448
v -4.999447 0 -14.99955
v 4.999552 0 -14.99945
v -4.999552 1.46652 -5.000553
v -4.999447 1.46652 -14.99955
v 3.999547 1.46652 -5.000458
v 3.999642 1.46652 -13.99956
v 4.999447 1.46652 -5.000448
v 4.999552 1.46652 -14.99945
v -3.999558 1.46652 -13.99964
v -3.999653 1.46652 -5.000542
v 3.999642 0.63327 -13.99956
v -3.999558 0.63327 -13.99964
v 3.9996 1.46652 14.9995
v 4.9995 1.46652 14.9995
v 3.9996 0.63327 14.9995
v 4.9995 0 14.9995
v -4.9995 0 14.9995
v -3.9996 0.63327 14.9995
v -4.9995 1.46652 14.9995
v -3.9996 1.46652 14.9995
v 4.9995 1.46652 5.0005
v 4.9995 0 5.0005
v -3.9996 1.46652 5.0005
v -4.9995 1.46652 5.0005
v -4.9995 0 5.0005
v 3.9996 1.46652 5.0005
v 3.9996 0.63327 7.50025
v 3.9996 0.3333 8.750126
v 3.9996 0.3333 11.24987
v 3.9996 0.63327 12.49975
v -3.9996 0.63327 7.50025
v -3.9996 0.3333 8.750126
v -3.9996 0.3333 11.24987
v -3.9996 0.63327 12.49975
v 4.9995 0 15.0005
v -4.9995 0 15.0005
v 4.9995 0 24.9995
v -4.9995 0 24.9995
v 4.9995 1.46652 15.0005
v 4.9995 1.46652 24.9995
v -4.9995 1.46652 15.0005
v -4.9995 1.46652 24.9995
v 3.9996 1.46652 15.0005
v 3.9996 1.46652 24.9995
v 3.9996 0.63327 24.9995
v -3.9996 1.46652 15.0005
v -3.9996 1.46652 24.9995
v -3.9996 0.63327 24.9995
v -4.421269 5.012972 21.54988
v -4.421269 5.012972 18.45012
v -2.749725 6.350207 21.54988
v -2.749725 6.350207 18.45012
v -1.078181 5.012972 21.54988
v -1.078181 5.012972 18.45012
v -1.265589 4.778711 18.45012
v -1.265589 4.778711 21.54988
v -4.23386 4.778711 18.45012
v -2.749725 5.966019 18.45012
v -4.23386 4.778711 21.54988
v -2.749725 5.966019 21.54988
v 4.421269 5.012972 18.45012
v 4.421269 5.012972 21.54988
v 2.749725 6.350207 18.45012
v 2.749725 6.350207 21.54988
v 1.078181 5.012972 18.45012
v 1.078181 5.012972 21.54988
v 4.23386 4.778711 18.45012
v 4.23386 4.778711 21.54988
v 1.265589 4.778711 18.45012
v 1.265589 4.778711 21.54988
v 2.749725 5.966019 18.45012
v 2.749725 5.966019 21.54988
v -1.49985 3.63292 21.24987
v -1.49985 4.29952 20
v 1.49985 3.63292 21.24987
v 1.49985 4.29952 20
v -1.49985 3.63292 18.75013
v 1.49985 3.63292 18.75013
v 1.49985 4.966119 18.75013
v 1.49985 4.966119 21.24987
v -1.49985 4.966119 18.75013
v -1.49985 4.966119 21.24987
v 3.9996 0.63327 21.24987
v 0.7499249 0.63327 21.24987
v 3.9996 4.966119 21.24987
v 0.7499249 2.383095 21.24987
v 0.7067993 2.560382 21.24987
v 0.6224096 2.722151 21.24987
v 0.5016829 2.858955 21.24987
v 0.3516672 2.96281 21.24987
v 0.1811206 3.027652 21.24987
v 3.057294E-12 3.049695 21.24987
v 2.749725 5.96602 21.24987
v -0.1811206 3.027652 21.24987
v -0.3516672 2.96281 21.24987
v -3.9996 4.966119 21.24987
v -2.749725 5.96602 21.24987
v -0.5016829 2.858955 21.24987
v -0.6224096 2.722151 21.24987
v -0.7067993 2.560382 21.24987
v -0.7499249 2.383095 21.24987
v -3.9996 0.63327 21.24987
v -0.7499249 0.63327 21.24987
v 0.7499249 0.63327 18.75013
v 0.7499249 2.383095 18.75013
v 0.7067993 2.560382 18.75013
v 0.6224096 2.722151 18.75013
v 0.5016829 2.858955 18.75013
v 0.3516672 2.96281 18.75013
v 0.1811206 3.027652 18.75013
v 3.057294E-12 3.049695 18.75013
v -0.1811206 3.027652 18.75013
v -0.3516672 2.96281 18.75013
v -0.5016829 2.858955 18.75013
v -0.6224096 2.722151 18.75013
v -0.7067993 2.560382 18.75013
v -0.7499249 2.383095 18.75013
v -0.7499249 0.63327 18.75013
v 3.9996 4.966119 18.75013
v 3.9996 0.63327 18.75013
v -3.9996 0.63327 18.75013
v -3.9996 4.966119 18.75013
v -2.749725 5.96602 18.75013
v 2.749725 5.96602 18.75013
v 4.9995 0 25.0005
v -4.9995 0 25.0005
v 4.9995 0 34.9995
v -4.9995 0 34.9995
v 4.9995 1.46652 25.0005
v 4.9995 1.46652 34.9995
v -3.9996 1.46652 25.0005
v -3.9996 1.46652 33.9996
v -4.9995 1.46652 25.0005
v -4.9995 1.46652 34.9995
v 3.9996 1.46652 33.9996
v 3.9996 1.46652 25.0005
v -3.9996 0.63327 33.9996
v 3.9996 0.63327 33.9996
v 0.6666 0.316635 30
v 0.4713573 0.316635 30.47136
v 0.4713573 0.316635 29.52864
v -1.986317E-08 0.316635 29.3334
v 1.986929E-08 0.316635 30.6666
v -0.4713573 0.316635 29.52864
v -0.4713573 0.316635 30.47136
v -0.6666 0.316635 30
v -0.6665998 0.63327 30
v -0.4713571 0.63327 29.52864
v 0.4713574 0.63327 30.47136
v 0.6666 0.63327 30
v 1.986929E-08 0.63327 30.6666
v 0.4713573 0.63327 29.52864
v -1.986317E-08 0.63327 29.3334
v -0.4713573 0.63327 30.47136

vt 0.21875 0.225
vt 0.21875 0.1113636
vt 0.21875 0.025
vt 0.0409338 0.1113644
vt 0.2157582 0.1963306
vt 0.2157582 0.225
vt 0.2157582 0.1945355
vt 0.21875 0.07045455
vt 0.09375 0.1113636
vt 0.09375 0.07045455
vt 0.03124999 0.2246487
vt 0.03735361 0.2110123
vt 0.21875 0.05481371
vt 0.21875 0.1761055
vt 0.21875 0.1374992
vt 0.21875 0.1624994
vt 0.09375 0.3874992
vt 0.09375 0.4374996
vt 0.09375 0.4124994
vt 0.09375 0.275
vt 0.09375 0.3406256
vt 0.09375 0.3472746
vt 0.09375 0.3533416
vt 0.09375 0.3584723
vt 0.09375 0.3623673
vt 0.09375 0.3647991
vt 0.09375 0.3656259
vt 0.09375 0.475
vt 0.03138663 0.1113653
vt 0.34375 0.06818182
vt 0.03125 0.2056245
vt 0.03675691 0.1848277
vt 0.03125 0.125
vt 0.21875 0.06818182
vt 0.05206317 0.08828521
vt 0.05740293 0.08490318
vt 0.004002489 0.08490318
vt 0.009342814 0.08828521
vt 0.02803297 0.08828521
vt 0.03337301 0.08828521
vt 0.05206333 0.05824514
vt 0.05206311 0.01017918
vt 0.00934276 0.01017963
vt 0.009342983 0.05824514
vt 0.02803314 0.05824514
vt 0.03337318 0.05824514
vt 3.9996 0.625375
vt 4.9995 -0.007895733
vt -4.9995 -0.007895733
vt -3.9996 0.625375
vt -0.49995 0.625375
vt 0.49995 0.625375
vt 0.009342983 0.1116456
vt 0.009342983 0.125001
vt 0.05206333 0.125001
vt 0.05206333 0.1116456
vt 0.03337318 0.1116456
vt 0.02803314 0.1116456
vt 0.03637335 0.1443953
vt 0.0175305 0.1202071
vt 0.03533065 0.1469126
vt 0.0175305 0.1682728

vn 0 0 1
vn 0 -1 0
vn 1 0 0
vn 0 0 -1
vn 0.0004688021 0.000575122 -0.9999998
vn -0.0005316983 0.0006254807 -0.9999996
vn 0 1 0
vn -1 0 0
vn -1.049146E-05 0.001150245 0.9999993
vn 0.0004688026 0.0005751227 0.9999997
vn 0.0009480965 0 0.9999995
vn -0.000531699 0.0006254815 0.9999996
vn -0.001052906 0 0.9999995
vn 0 0.001200032 -0.9999993
vn -0.001000027 0 -0.9999995
vn 0.0005000138 0.0006000163 -0.9999997
vn 0.001000027 0 -0.9999995
vn 0 0.9723874 -0.2333728
vn 0 0.9930729 -0.1175003
vn 0 0.9930729 0.1175003
vn 0 0.9723874 0.2333728
vn -0.0002498878 -0.0004892534 -0.9999998
vn -0.0004997754 -0.0007891183 -0.9999996
vn -0.6246951 0.7808688 0
vn 0.6246951 0.7808688 0
vn 0.7808692 -0.6246946 0
vn -0.7808694 -0.6246943 0
vn 0.624695 -0.7808688 0
vn -0.624695 -0.7808688 0
vn 0 0.8823527 0.4705887
vn 0 0.8823527 -0.4705887
vn -0.9928911 -0.1190263 0
vn -0.9359936 -0.3520172 0
vn -0.8242381 -0.5662434 0
vn -0.6643633 -0.7474098 0
vn -0.4657035 -0.8849408 0
vn -0.2398525 -0.9708093 0
vn 0.2398525 -0.9708093 0
vn 0.4657035 -0.8849408 0
vn 0.6643633 -0.7474098 0
vn 0.8242381 -0.5662434 0
vn 0.9359936 -0.3520172 0
vn 0.9928911 -0.1190263 0
vn -0.707107 0 -0.7071065
vn -0.707107 0 0.7071066
vn 0.707107 0 -0.7071066
vn 0.707107 0 0.7071065
vn 0 -0.001496915 0.9999989
vn -5.245728E-06 -0.001534187 0.9999989
vn 0 -0.001578989 -0.9999987

usemtl colormap
f 6/2/1 10/2/1 9/2/1
f 20/2/5 19/2/4 18/2/4
f 11/1/3 18/2/3 16/1/3
f 18/2/3 11/1/3 10/2/7
f 16/1/8 18/2/8 11/1/8
f 10/2/7 11/1/3 18/2/3
f 9/2/8 17/1/8 19/2/8
f 17/1/8 9/2/8 12/1/7
f 19/2/3 17/1/3 9/2/3
f 12/1/7 9/2/8 17/1/8
f 17/1/7 11/1/7 16/1/7
f 11/1/7 17/1/7 12/1/7
f 16/1/2 11/1/2 17/1/2
f 12/1/7 17/1/7 11/1/7
f 4/3/1 2/1/1 1/1/1
f 1/1/1 3/2/1 4/3/1
f 5/3/1 4/3/1 3/2/1
f 3/2/1 6/2/1 5/3/1
f 7/1/1 5/3/1 6/2/1
f 6/2/1 8/1/1 7/1/1
f 12/1/1 9/2/1 10/2/1
f 10/2/1 11/1/1 12/1/1
f 5/3/2 14/3/2 13/3/2
f 13/3/2 4/3/2 5/3/2
f 4/3/3 13/3/3 15/1/3
f 15/1/3 2/1/3 4/3/3
f 19/2/4 17/1/4 16/1/4
f 16/1/4 18/2/4 19/2/4
f 21/2/6 20/2/5 13/3/4
f 13/3/4 14/3/4 21/2/6
f 15/1/4 13/3/4 20/2/5
f 20/2/5 22/1/4 15/1/4
f 21/2/6 14/3/4 23/1/4
f 23/1/4 24/1/4 21/2/6
f 1/1/7 2/1/7 15/1/7
f 15/1/7 22/1/7 1/1/7
f 1/1/8 22/1/8 20/2/8
f 20/2/8 3/2/8 1/1/8
f 6/2/3 21/2/3 24/1/3
f 24/1/3 8/1/3 6/2/3
f 7/1/7 8/1/7 24/1/7
f 24/1/7 23/1/7 7/1/7
f 7/1/8 23/1/8 14/3/8
f 14/3/8 5/3/8 7/1/8
f 10/4/7 3/4/7 20/4/7
f 20/4/7 18/4/7 10/4/7
f 6/4/7 9/4/7 19/4/7
f 19/4/7 21/4/7 6/4/7

usemtl colormap_1
f 20/35/48 18/40/49 26/36/49
f 18/40/49 25/37/49 26/36/49
f 18/40/49 19/39/49 25/37/49
f 19/39/49 21/38/49 25/37/49
f 19/46/7 38/42/7 21/41/7
f 19/46/7 18/45/7 38/42/7
f 38/42/7 18/45/7 37/43/7
f 20/44/7 37/43/7 18/45/7
f 28/3/2 26/3/2 25/3/2
f 25/3/2 27/3/2 28/3/2
f 27/3/8 25/3/8 29/1/8
f 29/1/8 30/1/8 27/3/8
f 34/1/7 32/1/7 31/1/7
f 31/1/7 33/1/7 34/1/7
f 30/1/7 35/1/7 32/1/7
f 32/1/7 34/1/7 30/1/7
f 29/1/7 36/1/7 35/1/7
f 35/1/7 30/1/7 29/1/7
f 34/1/3 33/1/3 26/3/3
f 26/3/3 28/3/3 34/1/3
f 26/3/11 33/1/10 31/1/9
f 31/1/9 20/2/5 26/3/11
f 29/1/12 25/3/13 21/2/6
f 21/2/6 36/1/9 29/1/12
f 37/2/8 20/2/8 31/1/8
f 31/1/8 32/1/8 37/2/8
f 34/1/4 28/3/4 27/3/4
f 27/3/4 30/1/4 34/1/4
f 35/1/3 36/1/3 21/2/3
f 21/2/3 38/2/3 35/1/3
f 35/1/1 38/2/1 37/2/1
f 37/2/1 32/1/1 35/1/1

usemtl colormap_2
f 39/1/8 53/2/8 54/8/8
f 39/1/8 54/8/8 55/8/8
f 57/2/3 46/1/3 58/8/3
f 58/8/3 46/1/3 59/8/3
f 9/52/50 51/48/50 6/47/50
f 48/49/50 51/48/50 9/52/50
f 48/49/50 9/52/50 10/51/50
f 48/49/50 10/51/50 3/50/50
f 9/57/7 6/56/7 57/55/7
f 53/54/7 3/53/7 10/58/7
f 53/54/7 10/58/7 9/57/7
f 57/55/7 53/54/7 9/57/7
f 42/3/1 40/1/1 39/1/1
f 39/1/1 41/2/1 42/3/1
f 43/3/1 42/3/1 41/2/1
f 41/2/1 44/2/1 43/3/1
f 45/1/1 43/3/1 44/2/1
f 44/2/1 46/1/1 45/1/1
f 42/3/3 48/3/3 47/1/3
f 47/1/3 40/1/3 42/3/3
f 45/1/7 46/1/7 49/1/7
f 49/1/7 50/1/7 45/1/7
f 45/1/8 50/1/8 51/3/8
f 51/3/8 43/3/8 45/1/8
f 51/3/15 50/1/6 49/1/14
f 49/1/14 6/2/6 51/3/15
f 47/1/16 48/3/17 3/2/16
f 3/2/16 52/1/14 47/1/16
f 39/1/7 40/1/7 47/1/7
f 47/1/7 52/1/7 39/1/7
f 39/6/8 52/6/8 3/5/8
f 3/5/8 53/7/8 39/6/8
f 39/1/8 55/8/8 56/2/8
f 56/2/8 41/2/8 39/1/8
f 57/2/3 6/2/3 49/1/3
f 49/1/3 46/1/3 57/2/3
f 60/2/3 59/8/3 46/1/3
f 46/1/3 44/2/3 60/2/3
f 43/3/2 51/3/2 48/3/2
f 48/3/2 42/3/2 43/3/2
f 55/10/19 59/10/19 60/9/18
f 60/9/18 56/9/18 55/10/19
f 54/10/20 58/10/20 59/10/19
f 59/10/19 55/10/19 54/10/20
f 53/9/21 57/9/21 58/10/20
f 58/10/20 54/10/20 53/9/21
f 44/12/7 41/12/7 56/11/7
f 56/11/7 60/11/7 44/12/7

usemtl colormap_3
f 106/18/8 102/19/8 101/17/8
f 100/19/3 108/18/3 99/17/3
f 114/23/1 111/18/1 115/24/1
f 115/24/1 111/18/1 116/25/1
f 99/17/1 120/26/1 118/27/1
f 99/17/1 121/25/1 120/26/1
f 122/18/1 125/23/1 124/24/1
f 122/18/1 126/22/1 125/23/1
f 122/18/1 127/21/1 126/22/1
f 141/23/4 148/18/4 140/24/4
f 140/24/4 148/18/4 139/25/4
f 104/17/4 136/26/4 137/27/4
f 104/17/4 135/25/4 136/26/4
f 145/18/4 133/23/4 134/24/4
f 145/18/4 132/22/4 133/23/4
f 145/18/4 131/21/4 132/22/4
f 64/3/2 62/3/2 61/3/2
f 61/3/2 63/3/2 64/3/2
f 63/3/3 61/3/3 65/1/3
f 65/1/3 66/1/3 63/3/3
f 68/1/8 67/1/8 62/3/8
f 62/3/8 64/3/8 68/1/8
f 70/1/7 66/1/7 65/1/7
f 65/1/7 69/1/7 70/1/7
f 70/1/8 69/1/8 41/2/8
f 41/2/8 71/2/8 70/1/8
f 62/3/23 67/1/5 72/1/14
f 72/1/14 44/2/22 62/3/23
f 61/3/23 62/3/23 44/2/22
f 44/2/22 41/2/22 61/3/23
f 65/1/5 61/3/23 41/2/22
f 41/2/22 69/1/14 65/1/5
f 74/2/3 44/2/3 72/1/3
f 72/1/3 73/1/3 74/2/3
f 63/3/1 66/1/1 70/1/1
f 70/1/1 71/2/1 63/3/1
f 64/3/1 63/3/1 71/2/1
f 71/2/1 74/2/1 64/3/1
f 68/1/1 64/3/1 74/2/1
f 74/2/1 73/1/1 68/1/1
f 68/1/7 73/1/7 72/1/7
f 72/1/7 67/1/7 68/1/7
f 78/1/7 76/13/24 75/13/24
f 75/13/24 77/1/7 78/1/7
f 80/13/25 78/1/7 77/1/7
f 77/1/7 79/13/25 80/13/25
f 82/3/26 81/3/26 80/13/26
f 80/13/26 79/13/26 82/3/26
f 78/1/4 84/14/4 83/3/4
f 83/3/4 76/13/4 78/1/4
f 81/3/4 84/14/4 78/1/4
f 78/1/4 80/13/4 81/3/4
f 75/13/27 76/13/27 83/3/27
f 83/3/27 85/3/27 75/13/27
f 85/3/28 83/3/28 84/14/28
f 84/14/28 86/14/28 85/3/28
f 77/1/1 86/14/1 82/3/1
f 82/3/1 79/13/1 77/1/1
f 85/3/1 86/14/1 77/1/1
f 77/1/1 75/13/1 85/3/1
f 84/14/29 81/3/29 82/3/29
f 82/3/29 86/14/29 84/14/29
f 90/1/7 88/13/25 87/13/25
f 87/13/25 89/1/7 90/1/7
f 92/13/24 90/1/7 89/1/7
f 89/1/7 91/13/24 92/13/24
f 94/3/26 93/3/26 87/13/26
f 87/13/26 88/13/26 94/3/26
f 92/13/27 91/13/27 95/3/27
f 95/3/27 96/3/27 92/13/27
f 89/1/4 97/14/4 95/3/4
f 95/3/4 91/13/4 89/1/4
f 93/3/4 97/14/4 89/1/4
f 89/1/4 87/13/4 93/3/4
f 96/3/28 95/3/28 97/14/28
f 97/14/28 98/14/28 96/3/28
f 90/1/1 98/14/1 94/3/1
f 94/3/1 88/13/1 90/1/1
f 96/3/1 98/14/1 90/1/1
f 90/1/1 92/13/1 96/3/1
f 98/14/29 97/14/29 93/3/29
f 93/3/29 94/3/29 98/14/29
f 102/16/7 100/16/7 99/15/30
f 99/15/30 101/15/30 102/16/7
f 104/15/31 103/15/31 100/16/7
f 100/16/7 102/16/7 104/15/31
f 106/18/8 105/18/8 104/17/8
f 104/17/8 102/19/8 106/18/8
f 108/18/3 100/19/3 103/17/3
f 103/17/3 107/18/3 108/18/3
f 112/21/1 110/20/1 109/20/1
f 109/20/1 111/18/1 112/21/1
f 113/22/1 112/21/1 111/18/1
f 111/18/1 114/23/1 113/22/1
f 116/25/1 111/18/1 101/17/1
f 101/17/1 117/26/1 116/25/1
f 118/27/1 117/26/1 101/17/1
f 101/17/1 99/17/1 118/27/1
f 106/18/1 101/17/1 111/18/1
f 111/18/1 119/28/1 106/18/1
f 124/24/1 121/25/1 99/17/1
f 99/17/1 122/18/1 124/24/1
f 122/18/1 99/17/1 108/18/1
f 108/18/1 123/28/1 122/18/1
f 129/20/1 127/21/1 122/18/1
f 122/18/1 128/20/1 129/20/1
f 112/21/32 131/21/32 130/20/8
f 130/20/8 110/20/8 112/21/32
f 113/22/33 132/22/33 131/21/32
f 131/21/32 112/21/32 113/22/33
f 114/23/34 133/23/34 132/22/33
f 132/22/33 113/22/33 114/23/34
f 115/24/35 134/24/35 133/23/34
f 133/23/34 114/23/34 115/24/35
f 135/25/36 134/24/35 115/24/35
f 115/24/35 116/25/36 135/25/36
f 136/26/37 135/25/36 116/25/36
f 116/25/36 117/26/37 136/26/37
f 137/27/2 136/26/37 117/26/37
f 117/26/37 118/27/2 137/27/2
f 138/26/38 137/27/2 118/27/2
f 118/27/2 120/26/38 138/26/38
f 139/25/39 138/26/38 120/26/38
f 120/26/38 121/25/39 139/25/39
f 140/24/40 139/25/39 121/25/39
f 121/25/39 124/24/40 140/24/40
f 125/23/41 141/23/41 140/24/40
f 140/24/40 124/24/40 125/23/41
f 126/22/42 142/22/42 141/23/41
f 141/23/41 125/23/41 126/22/42
f 127/21/43 143/21/43 142/22/42
f 142/22/42 126/22/42 127/21/43
f 129/20/3 144/20/3 143/21/43
f 143/21/43 127/21/43 129/20/3
f 109/20/3 146/20/3 145/18/3
f 145/18/3 111/18/3 109/20/3
f 148/18/4 143/21/4 144/20/4
f 144/20/4 147/20/4 148/18/4
f 142/22/4 143/21/4 148/18/4
f 148/18/4 141/23/4 142/22/4
f 139/25/4 148/18/4 103/17/4
f 103/17/4 138/26/4 139/25/4
f 137/27/4 138/26/4 103/17/4
f 103/17/4 104/17/4 137/27/4
f 107/18/4 103/17/4 148/18/4
f 148/18/4 149/28/4 107/18/4
f 134/24/4 135/25/4 104/17/4
f 104/17/4 145/18/4 134/24/4
f 145/18/4 104/17/4 105/18/4
f 105/18/4 150/28/4 145/18/4
f 130/20/4 131/21/4 145/18/4
f 145/18/4 146/20/4 130/20/4
f 122/18/8 148/18/8 147/20/8
f 147/20/8 128/20/8 122/18/8
f 74/29/7 71/29/7 41/29/7
f 41/29/7 44/29/7 74/29/7

usemtl colormap_4
f 167/30/7 166/30/7 165/30/7
f 166/30/7 167/30/7 168/30/7
f 174/31/7 74/32/7 173/31/7
f 164/33/7 175/33/7 163/33/7
f 175/33/7 164/33/7 176/33/7
f 71/32/7 74/32/7 178/31/7
f 176/61/7 71/60/7 178/59/7
f 176/61/7 164/62/7 71/60/7
f 174/31/7 179/31/7 74/32/7
f 179/31/7 178/31/7 74/32/7
f 163/31/7 173/31/7 74/32/7
f 163/33/7 180/33/7 173/33/7
f 180/33/7 163/33/7 177/33/7
f 163/33/7 175/33/7 177/33/7
f 154/3/2 152/3/2 151/3/2
f 151/3/2 153/3/2 154/3/2
f 153/3/3 151/3/3 155/1/3
f 155/1/3 156/1/3 153/3/3
f 160/1/7 158/1/7 157/1/7
f 157/1/7 159/1/7 160/1/7
f 156/1/7 161/1/7 158/1/7
f 158/1/7 160/1/7 156/1/7
f 155/1/7 162/1/7 161/1/7
f 161/1/7 156/1/7 155/1/7
f 160/1/8 159/1/8 152/3/8
f 152/3/8 154/3/8 160/1/8
f 152/3/23 159/1/5 157/1/14
f 157/1/14 74/2/22 152/3/23
f 151/3/23 152/3/23 74/2/22
f 74/2/22 71/2/22 151/3/23
f 155/1/5 151/3/23 71/2/22
f 71/2/22 162/1/14 155/1/5
f 163/2/3 74/2/3 157/1/3
f 157/1/3 158/1/3 163/2/3
f 160/1/1 154/3/1 153/3/1
f 153/3/1 156/1/1 160/1/1
f 161/1/8 162/1/8 71/2/8
f 71/2/8 164/2/8 161/1/8
f 161/1/4 164/2/4 163/2/4
f 163/2/4 158/1/4 161/1/4
f 169/30/7 166/30/7 168/30/7
f 168/30/7 170/30/7 169/30/7
f 171/30/7 169/30/7 170/30/7
f 170/30/7 172/30/7 171/30/7
f 165/34/8 166/34/44 175/2/44
f 175/2/44 176/2/8 165/34/8
f 169/34/4 177/2/4 175/2/44
f 175/2/44 166/34/44 169/34/4
f 167/34/45 165/34/8 176/2/8
f 176/2/8 178/2/45 167/34/45
f 179/2/1 168/34/1 167/34/45
f 167/34/45 178/2/45 179/2/1
f 171/34/46 180/2/46 177/2/4
f 177/2/4 169/34/4 171/34/46
f 173/2/3 180/2/46 171/34/46
f 171/34/46 172/34/3 173/2/3
f 174/2/47 170/34/47 168/34/1
f 168/34/1 179/2/1 174/2/47
f 174/2/47 173/2/3 172/34/3
f 172/34/3 170/34/47 174/2/47

